<svg 
  viewBox="0 0 72 72" 
  xmlns="http://www.w3.org/2000/svg">
  
  <ellipse 
    cx="28.0684" 
    cy="32.818" 
    rx="3" 
    ry="5.4038"
    fill="white" />
  
  <ellipse 
    cx="43.9316" 
    cy="32.8216" 
    rx="3" 
    ry="5.4038"
    fill="white" />
  
  <g 
    fill="none" 
    stroke="#fff" 
    stroke-linecap="round" 
    stroke-linejoin="round" 
    stroke-width="2">
    
    <path 
      d="M58.4382 32.925c.3677 1.6327.5618 3.3312.5618 5.075 0 12.7025-10.2975 23-23 23s-23-10.2975-23-23c0-1.7438.1941-3.4423.5618-5.075" 
      stroke-miterlimit="10" />
    
    <path 
      d="M36 23.3153c9.267-.1288 15.3345-2.4577 15.3345-2.4577 2.5862 2.315 4.6453 5.2066 5.9755 8.4727 0 0 10.5948-8.3618 2.2954-15.1052 0 0-4.0069-3.8593-10.0363 1.6462 0 0-3.8861 3.6651-13.5691 3.706-9.683-.0409-13.5691-3.706-13.5691-3.706-6.0294-5.5055-10.0363-1.6462-10.0363-1.6462-8.2994 6.7434 2.2954 15.1052 2.2954 15.1052 1.3301-3.2661 3.3893-6.1577 5.9755-8.4727 0 0 6.0675 2.329 15.3345 2.4577z" 
      stroke-miterlimit="10" />
    
    <path 
      d="M36 19.5773c6.0519-.0256 9.767-1.4279 11.7566-2.5053 0 0-1.6341-.5702-1.3904-2.7816.0725-.6576.3541-1.6277.7107-2.549.6391-1.651.1938-2.9689-4.1138-5.1348 0 0-2.0825-1.0407-2.8202-1.2739-1.083-.3423-2.9339-.6203-4.1429.8181-1.209-1.4384-3.0599-1.1604-4.1428-.8181-.7377.2332-2.8202 1.2739-2.8202 1.2739-4.3076 2.1659-4.7529 3.4838-4.1138 5.1348.3566.9213.6382 1.8914.7107 2.549.2437 2.2114-1.3904 2.7816-1.3904 2.7816 1.9895 1.0774 5.7046 2.4797 11.7565 2.5053z" 
      stroke-miterlimit="10" />
    
    <path 
      d="M50.595 43.64c.012 1.5397-.2838 3.0662-.87 4.49-12.49 3.03-25.43.34-27.49-.13-.5588-1.3852-.8407-2.8664-.83-4.36h.11s14.8 3.59 28.89.07z" />
    
    <path 
      d="M49.7251 48.13c-1.79 4.27-6.35 7.23-13.69 7.23-7.41 0-12.03-3.03-13.8-7.36 2.06.47 14.9999 3.16 27.49.13z" />
    
  </g>
</svg>
